<svg xmlns="http://www.w3.org/2000/svg" viewBox="0 0 64 64" fill="#fff"><path d="M47.735.914H15.643a1.94,1.94,0,0,0-1.938,1.939V4.191H7.813A2.46,2.46,0,0,0,5.356,6.648V60.569a2.52,2.52,0,0,0,2.517,2.517H55.506a2.52,2.52,0,0,0,2.517-2.517V6.648a2.46,2.46,0,0,0-2.458-2.457H49.674V2.853A1.941,1.941,0,0,0,47.735.914ZM16.2,5.441V3.414H47.174v7H16.2ZM7.813,6.691h5.892v3.727H7.844Zm47.71,53.878a.018.018,0,0,1-.017.017l-47.65-.017V13.032H55.523Zm0-53.921v3.77H49.674V6.683Z"/><circle cx="52.051" cy="57.307" r="1.287"/><circle cx="11.328" cy="57.307" r="1.287"/><rect width="26.156" height="2.5" x="23.288" y="22.922"/><rect width="26.156" height="2.5" x="23.288" y="30.321"/><path d="M19.417,20.293H14.159a1.25,1.25,0,0,0-1.25,1.25V26.8a1.25,1.25,0,0,0,1.25,1.25h5.258a1.25,1.25,0,0,0,1.25-1.25V21.543A1.25,1.25,0,0,0,19.417,20.293Zm-1.25,5.258H15.409V22.793h2.758Z"/><rect width="26.156" height="2.5" x="23.288" y="40.347"/><rect width="26.156" height="2.5" x="23.288" y="47.744"/><path d="M19.417,37.718H14.159a1.25,1.25,0,0,0-1.25,1.25v5.258a1.25,1.25,0,0,0,1.25,1.25h5.258a1.25,1.25,0,0,0,1.25-1.25V38.968A1.25,1.25,0,0,0,19.417,37.718Zm-1.25,5.258H15.409V40.218h2.758Z"/></svg>